<mxfile host="app.diagrams.net" modified="2024-06-13T12:49:49.965Z" agent="Mozilla/5.0 (Windows NT 10.0; Win64; x64) AppleWebKit/537.36 (KHTML, like Gecko) Chrome/125.0.0.0 Safari/537.36" etag="ttLhGU0Jt7y8NVzvP3B8" version="24.5.1" type="github">
  <diagram id="C5RBs43oDa-KdzZeNtuy" name="Page-1">
    <mxGraphModel dx="2423" dy="763" grid="1" gridSize="10" guides="1" tooltips="1" connect="1" arrows="1" fold="1" page="1" pageScale="1" pageWidth="827" pageHeight="1169" math="0" shadow="0">
      <root>
        <mxCell id="WIyWlLk6GJQsqaUBKTNV-0" />
        <mxCell id="WIyWlLk6GJQsqaUBKTNV-1" parent="WIyWlLk6GJQsqaUBKTNV-0" />
        <mxCell id="gTHYXfEmKqP9YLr0QdxY-29" value="" style="edgeStyle=orthogonalEdgeStyle;rounded=0;orthogonalLoop=1;jettySize=auto;html=1;" edge="1" parent="WIyWlLk6GJQsqaUBKTNV-1" source="WIyWlLk6GJQsqaUBKTNV-3" target="gTHYXfEmKqP9YLr0QdxY-28">
          <mxGeometry relative="1" as="geometry" />
        </mxCell>
        <mxCell id="gTHYXfEmKqP9YLr0QdxY-31" value="" style="edgeStyle=orthogonalEdgeStyle;rounded=0;orthogonalLoop=1;jettySize=auto;html=1;entryX=0;entryY=0.5;entryDx=0;entryDy=0;" edge="1" parent="WIyWlLk6GJQsqaUBKTNV-1" source="WIyWlLk6GJQsqaUBKTNV-3" target="gTHYXfEmKqP9YLr0QdxY-35">
          <mxGeometry relative="1" as="geometry" />
        </mxCell>
        <mxCell id="gTHYXfEmKqP9YLr0QdxY-41" value="" style="edgeStyle=orthogonalEdgeStyle;rounded=0;orthogonalLoop=1;jettySize=auto;html=1;" edge="1" parent="WIyWlLk6GJQsqaUBKTNV-1" source="WIyWlLk6GJQsqaUBKTNV-3" target="gTHYXfEmKqP9YLr0QdxY-2">
          <mxGeometry relative="1" as="geometry" />
        </mxCell>
        <mxCell id="gTHYXfEmKqP9YLr0QdxY-73" value="" style="edgeStyle=orthogonalEdgeStyle;rounded=0;orthogonalLoop=1;jettySize=auto;html=1;entryX=0.5;entryY=1;entryDx=0;entryDy=0;" edge="1" parent="WIyWlLk6GJQsqaUBKTNV-1" source="WIyWlLk6GJQsqaUBKTNV-3" target="gTHYXfEmKqP9YLr0QdxY-30">
          <mxGeometry relative="1" as="geometry">
            <mxPoint x="740" y="320" as="targetPoint" />
          </mxGeometry>
        </mxCell>
        <mxCell id="WIyWlLk6GJQsqaUBKTNV-3" value="Home Page" style="rounded=1;whiteSpace=wrap;html=1;fontSize=12;glass=0;strokeWidth=1;shadow=0;" parent="WIyWlLk6GJQsqaUBKTNV-1" vertex="1">
          <mxGeometry x="354" y="300" width="120" height="40" as="geometry" />
        </mxCell>
        <mxCell id="WIyWlLk6GJQsqaUBKTNV-8" value="Yes" style="rounded=0;html=1;jettySize=auto;orthogonalLoop=1;fontSize=11;endArrow=block;endFill=0;endSize=8;strokeWidth=1;shadow=0;labelBackgroundColor=none;edgeStyle=orthogonalEdgeStyle;" parent="WIyWlLk6GJQsqaUBKTNV-1" source="WIyWlLk6GJQsqaUBKTNV-10" target="WIyWlLk6GJQsqaUBKTNV-11" edge="1">
          <mxGeometry x="0.3333" y="20" relative="1" as="geometry">
            <mxPoint as="offset" />
          </mxGeometry>
        </mxCell>
        <mxCell id="WIyWlLk6GJQsqaUBKTNV-9" value="No" style="edgeStyle=orthogonalEdgeStyle;rounded=0;html=1;jettySize=auto;orthogonalLoop=1;fontSize=11;endArrow=block;endFill=0;endSize=8;strokeWidth=1;shadow=0;labelBackgroundColor=none;entryX=1;entryY=0.5;entryDx=0;entryDy=0;" parent="WIyWlLk6GJQsqaUBKTNV-1" source="WIyWlLk6GJQsqaUBKTNV-10" target="gTHYXfEmKqP9YLr0QdxY-17" edge="1">
          <mxGeometry y="10" relative="1" as="geometry">
            <mxPoint as="offset" />
            <mxPoint x="560" y="410" as="targetPoint" />
            <Array as="points">
              <mxPoint x="520" y="520" />
              <mxPoint x="520" y="410" />
            </Array>
          </mxGeometry>
        </mxCell>
        <mxCell id="WIyWlLk6GJQsqaUBKTNV-10" value="Authenticate" style="rhombus;whiteSpace=wrap;html=1;shadow=0;fontFamily=Helvetica;fontSize=12;align=center;strokeWidth=1;spacing=6;spacingTop=-4;" parent="WIyWlLk6GJQsqaUBKTNV-1" vertex="1">
          <mxGeometry x="370" y="480" width="100" height="80" as="geometry" />
        </mxCell>
        <mxCell id="gTHYXfEmKqP9YLr0QdxY-58" value="" style="edgeStyle=orthogonalEdgeStyle;rounded=0;orthogonalLoop=1;jettySize=auto;html=1;" edge="1" parent="WIyWlLk6GJQsqaUBKTNV-1" source="WIyWlLk6GJQsqaUBKTNV-11" target="gTHYXfEmKqP9YLr0QdxY-57">
          <mxGeometry relative="1" as="geometry" />
        </mxCell>
        <mxCell id="WIyWlLk6GJQsqaUBKTNV-11" value="Reserve Venue" style="rounded=1;whiteSpace=wrap;html=1;fontSize=12;glass=0;strokeWidth=1;shadow=0;" parent="WIyWlLk6GJQsqaUBKTNV-1" vertex="1">
          <mxGeometry x="360" y="600" width="120" height="40" as="geometry" />
        </mxCell>
        <mxCell id="gTHYXfEmKqP9YLr0QdxY-1" value="" style="edgeStyle=orthogonalEdgeStyle;rounded=0;orthogonalLoop=1;jettySize=auto;html=1;" edge="1" parent="WIyWlLk6GJQsqaUBKTNV-1" source="gTHYXfEmKqP9YLr0QdxY-0" target="WIyWlLk6GJQsqaUBKTNV-3">
          <mxGeometry relative="1" as="geometry" />
        </mxCell>
        <mxCell id="gTHYXfEmKqP9YLr0QdxY-0" value="Start" style="ellipse;whiteSpace=wrap;html=1;" vertex="1" parent="WIyWlLk6GJQsqaUBKTNV-1">
          <mxGeometry x="354" y="200" width="120" height="40" as="geometry" />
        </mxCell>
        <mxCell id="gTHYXfEmKqP9YLr0QdxY-13" value="" style="edgeStyle=orthogonalEdgeStyle;rounded=0;orthogonalLoop=1;jettySize=auto;html=1;" edge="1" parent="WIyWlLk6GJQsqaUBKTNV-1" source="gTHYXfEmKqP9YLr0QdxY-2" target="gTHYXfEmKqP9YLr0QdxY-12">
          <mxGeometry relative="1" as="geometry" />
        </mxCell>
        <mxCell id="gTHYXfEmKqP9YLr0QdxY-63" value="" style="edgeStyle=orthogonalEdgeStyle;rounded=0;orthogonalLoop=1;jettySize=auto;html=1;" edge="1" parent="WIyWlLk6GJQsqaUBKTNV-1" source="gTHYXfEmKqP9YLr0QdxY-2" target="gTHYXfEmKqP9YLr0QdxY-62">
          <mxGeometry relative="1" as="geometry" />
        </mxCell>
        <mxCell id="gTHYXfEmKqP9YLr0QdxY-2" value="Sport Page" style="whiteSpace=wrap;html=1;rounded=1;glass=0;strokeWidth=1;shadow=0;" vertex="1" parent="WIyWlLk6GJQsqaUBKTNV-1">
          <mxGeometry x="160" y="300" width="120" height="40" as="geometry" />
        </mxCell>
        <mxCell id="gTHYXfEmKqP9YLr0QdxY-16" value="" style="edgeStyle=orthogonalEdgeStyle;rounded=0;orthogonalLoop=1;jettySize=auto;html=1;" edge="1" parent="WIyWlLk6GJQsqaUBKTNV-1" source="gTHYXfEmKqP9YLr0QdxY-12" target="gTHYXfEmKqP9YLr0QdxY-15">
          <mxGeometry relative="1" as="geometry" />
        </mxCell>
        <mxCell id="gTHYXfEmKqP9YLr0QdxY-18" value="" style="edgeStyle=orthogonalEdgeStyle;rounded=0;orthogonalLoop=1;jettySize=auto;html=1;" edge="1" parent="WIyWlLk6GJQsqaUBKTNV-1" source="gTHYXfEmKqP9YLr0QdxY-12" target="gTHYXfEmKqP9YLr0QdxY-17">
          <mxGeometry relative="1" as="geometry" />
        </mxCell>
        <mxCell id="gTHYXfEmKqP9YLr0QdxY-12" value="View All Venues" style="whiteSpace=wrap;html=1;rounded=1;glass=0;strokeWidth=1;shadow=0;" vertex="1" parent="WIyWlLk6GJQsqaUBKTNV-1">
          <mxGeometry x="160" y="390" width="120" height="40" as="geometry" />
        </mxCell>
        <mxCell id="gTHYXfEmKqP9YLr0QdxY-25" value="" style="edgeStyle=orthogonalEdgeStyle;rounded=0;orthogonalLoop=1;jettySize=auto;html=1;" edge="1" parent="WIyWlLk6GJQsqaUBKTNV-1" source="gTHYXfEmKqP9YLr0QdxY-15" target="gTHYXfEmKqP9YLr0QdxY-23">
          <mxGeometry relative="1" as="geometry" />
        </mxCell>
        <mxCell id="gTHYXfEmKqP9YLr0QdxY-15" value="View all Match Games" style="whiteSpace=wrap;html=1;rounded=1;glass=0;strokeWidth=1;shadow=0;" vertex="1" parent="WIyWlLk6GJQsqaUBKTNV-1">
          <mxGeometry x="160" y="480" width="120" height="40" as="geometry" />
        </mxCell>
        <mxCell id="gTHYXfEmKqP9YLr0QdxY-19" value="" style="edgeStyle=orthogonalEdgeStyle;rounded=0;orthogonalLoop=1;jettySize=auto;html=1;" edge="1" parent="WIyWlLk6GJQsqaUBKTNV-1" source="gTHYXfEmKqP9YLr0QdxY-17" target="WIyWlLk6GJQsqaUBKTNV-10">
          <mxGeometry relative="1" as="geometry" />
        </mxCell>
        <mxCell id="gTHYXfEmKqP9YLr0QdxY-17" value="View Single Venue" style="whiteSpace=wrap;html=1;rounded=1;glass=0;strokeWidth=1;shadow=0;" vertex="1" parent="WIyWlLk6GJQsqaUBKTNV-1">
          <mxGeometry x="360" y="390" width="120" height="40" as="geometry" />
        </mxCell>
        <mxCell id="gTHYXfEmKqP9YLr0QdxY-22" value="Yes" style="rounded=0;html=1;jettySize=auto;orthogonalLoop=1;fontSize=11;endArrow=block;endFill=0;endSize=8;strokeWidth=1;shadow=0;labelBackgroundColor=none;edgeStyle=orthogonalEdgeStyle;" edge="1" parent="WIyWlLk6GJQsqaUBKTNV-1" source="gTHYXfEmKqP9YLr0QdxY-23" target="gTHYXfEmKqP9YLr0QdxY-24">
          <mxGeometry x="0.3333" y="20" relative="1" as="geometry">
            <mxPoint as="offset" />
          </mxGeometry>
        </mxCell>
        <mxCell id="gTHYXfEmKqP9YLr0QdxY-23" value="Authenticate" style="rhombus;whiteSpace=wrap;html=1;shadow=0;fontFamily=Helvetica;fontSize=12;align=center;strokeWidth=1;spacing=6;spacingTop=-4;" vertex="1" parent="WIyWlLk6GJQsqaUBKTNV-1">
          <mxGeometry x="170" y="560" width="100" height="80" as="geometry" />
        </mxCell>
        <mxCell id="gTHYXfEmKqP9YLr0QdxY-50" value="" style="edgeStyle=orthogonalEdgeStyle;rounded=0;orthogonalLoop=1;jettySize=auto;html=1;entryX=0;entryY=0.5;entryDx=0;entryDy=0;" edge="1" parent="WIyWlLk6GJQsqaUBKTNV-1" source="gTHYXfEmKqP9YLr0QdxY-24" target="gTHYXfEmKqP9YLr0QdxY-61">
          <mxGeometry relative="1" as="geometry">
            <mxPoint x="313.9699999999998" y="780" as="targetPoint" />
            <Array as="points">
              <mxPoint x="214" y="780" />
            </Array>
          </mxGeometry>
        </mxCell>
        <mxCell id="gTHYXfEmKqP9YLr0QdxY-24" value="Challenge" style="rounded=1;whiteSpace=wrap;html=1;fontSize=12;glass=0;strokeWidth=1;shadow=0;" vertex="1" parent="WIyWlLk6GJQsqaUBKTNV-1">
          <mxGeometry x="160" y="680" width="120" height="40" as="geometry" />
        </mxCell>
        <mxCell id="gTHYXfEmKqP9YLr0QdxY-26" value="No" style="edgeStyle=orthogonalEdgeStyle;rounded=0;html=1;jettySize=auto;orthogonalLoop=1;fontSize=11;endArrow=block;endFill=0;endSize=8;strokeWidth=1;shadow=0;labelBackgroundColor=none;entryX=0;entryY=0.5;entryDx=0;entryDy=0;exitX=0;exitY=0.5;exitDx=0;exitDy=0;" edge="1" parent="WIyWlLk6GJQsqaUBKTNV-1" source="gTHYXfEmKqP9YLr0QdxY-23" target="gTHYXfEmKqP9YLr0QdxY-15">
          <mxGeometry y="10" relative="1" as="geometry">
            <mxPoint as="offset" />
            <mxPoint x="-66.03" y="620" as="sourcePoint" />
            <mxPoint x="-56.03" y="510" as="targetPoint" />
            <Array as="points">
              <mxPoint x="113.97" y="600" />
              <mxPoint x="113.97" y="500" />
            </Array>
          </mxGeometry>
        </mxCell>
        <mxCell id="gTHYXfEmKqP9YLr0QdxY-42" value="" style="edgeStyle=orthogonalEdgeStyle;rounded=0;orthogonalLoop=1;jettySize=auto;html=1;entryX=0.5;entryY=0;entryDx=0;entryDy=0;" edge="1" parent="WIyWlLk6GJQsqaUBKTNV-1" source="gTHYXfEmKqP9YLr0QdxY-28" target="gTHYXfEmKqP9YLr0QdxY-35">
          <mxGeometry relative="1" as="geometry">
            <Array as="points">
              <mxPoint x="574" y="320" />
              <mxPoint x="654" y="320" />
            </Array>
          </mxGeometry>
        </mxCell>
        <mxCell id="gTHYXfEmKqP9YLr0QdxY-74" value="" style="edgeStyle=orthogonalEdgeStyle;rounded=0;orthogonalLoop=1;jettySize=auto;html=1;entryX=0.5;entryY=0;entryDx=0;entryDy=0;" edge="1" parent="WIyWlLk6GJQsqaUBKTNV-1" source="gTHYXfEmKqP9YLr0QdxY-28" target="gTHYXfEmKqP9YLr0QdxY-35">
          <mxGeometry relative="1" as="geometry">
            <Array as="points">
              <mxPoint x="654" y="260" />
            </Array>
          </mxGeometry>
        </mxCell>
        <mxCell id="gTHYXfEmKqP9YLr0QdxY-28" value="Register Page" style="whiteSpace=wrap;html=1;rounded=1;glass=0;strokeWidth=1;shadow=0;" vertex="1" parent="WIyWlLk6GJQsqaUBKTNV-1">
          <mxGeometry x="514" y="240" width="120" height="40" as="geometry" />
        </mxCell>
        <mxCell id="gTHYXfEmKqP9YLr0QdxY-75" value="" style="edgeStyle=orthogonalEdgeStyle;rounded=0;orthogonalLoop=1;jettySize=auto;html=1;entryX=0.5;entryY=0;entryDx=0;entryDy=0;" edge="1" parent="WIyWlLk6GJQsqaUBKTNV-1" source="gTHYXfEmKqP9YLr0QdxY-30" target="gTHYXfEmKqP9YLr0QdxY-35">
          <mxGeometry relative="1" as="geometry">
            <Array as="points">
              <mxPoint x="654" y="260" />
            </Array>
          </mxGeometry>
        </mxCell>
        <mxCell id="gTHYXfEmKqP9YLr0QdxY-30" value="Login Page" style="whiteSpace=wrap;html=1;rounded=1;glass=0;strokeWidth=1;shadow=0;" vertex="1" parent="WIyWlLk6GJQsqaUBKTNV-1">
          <mxGeometry x="674" y="240" width="120" height="40" as="geometry" />
        </mxCell>
        <mxCell id="gTHYXfEmKqP9YLr0QdxY-35" value="Success or Authenticate" style="rhombus;whiteSpace=wrap;html=1;" vertex="1" parent="WIyWlLk6GJQsqaUBKTNV-1">
          <mxGeometry x="604" y="360" width="100" height="80" as="geometry" />
        </mxCell>
        <mxCell id="gTHYXfEmKqP9YLr0QdxY-44" value="Yes" style="rounded=0;html=1;jettySize=auto;orthogonalLoop=1;fontSize=11;endArrow=block;endFill=0;endSize=8;strokeWidth=1;shadow=0;labelBackgroundColor=none;edgeStyle=orthogonalEdgeStyle;" edge="1" parent="WIyWlLk6GJQsqaUBKTNV-1">
          <mxGeometry x="0.3333" y="20" relative="1" as="geometry">
            <mxPoint as="offset" />
            <mxPoint x="653.71" y="440" as="sourcePoint" />
            <mxPoint x="653.71" y="480" as="targetPoint" />
          </mxGeometry>
        </mxCell>
        <mxCell id="gTHYXfEmKqP9YLr0QdxY-52" value="" style="edgeStyle=orthogonalEdgeStyle;rounded=0;orthogonalLoop=1;jettySize=auto;html=1;" edge="1" parent="WIyWlLk6GJQsqaUBKTNV-1" source="gTHYXfEmKqP9YLr0QdxY-45" target="gTHYXfEmKqP9YLr0QdxY-51">
          <mxGeometry relative="1" as="geometry" />
        </mxCell>
        <mxCell id="gTHYXfEmKqP9YLr0QdxY-45" value="User Page" style="rounded=1;whiteSpace=wrap;html=1;fontSize=12;glass=0;strokeWidth=1;shadow=0;" vertex="1" parent="WIyWlLk6GJQsqaUBKTNV-1">
          <mxGeometry x="594" y="480" width="120" height="40" as="geometry" />
        </mxCell>
        <mxCell id="gTHYXfEmKqP9YLr0QdxY-46" value="No" style="edgeStyle=orthogonalEdgeStyle;rounded=0;html=1;jettySize=auto;orthogonalLoop=1;fontSize=11;endArrow=block;endFill=0;endSize=8;strokeWidth=1;shadow=0;labelBackgroundColor=none;entryX=1;entryY=0.5;entryDx=0;entryDy=0;exitX=1;exitY=0.5;exitDx=0;exitDy=0;" edge="1" parent="WIyWlLk6GJQsqaUBKTNV-1" source="gTHYXfEmKqP9YLr0QdxY-35" target="gTHYXfEmKqP9YLr0QdxY-30">
          <mxGeometry y="10" relative="1" as="geometry">
            <mxPoint as="offset" />
            <mxPoint x="1024" y="430" as="sourcePoint" />
            <mxPoint x="764" y="410" as="targetPoint" />
            <Array as="points">
              <mxPoint x="834" y="400" />
              <mxPoint x="834" y="260" />
            </Array>
          </mxGeometry>
        </mxCell>
        <mxCell id="gTHYXfEmKqP9YLr0QdxY-54" value="" style="edgeStyle=orthogonalEdgeStyle;rounded=0;orthogonalLoop=1;jettySize=auto;html=1;" edge="1" parent="WIyWlLk6GJQsqaUBKTNV-1" source="gTHYXfEmKqP9YLr0QdxY-51" target="gTHYXfEmKqP9YLr0QdxY-53">
          <mxGeometry relative="1" as="geometry" />
        </mxCell>
        <mxCell id="gTHYXfEmKqP9YLr0QdxY-51" value="Reservations" style="whiteSpace=wrap;html=1;rounded=1;glass=0;strokeWidth=1;shadow=0;" vertex="1" parent="WIyWlLk6GJQsqaUBKTNV-1">
          <mxGeometry x="594" y="560" width="120" height="40" as="geometry" />
        </mxCell>
        <mxCell id="gTHYXfEmKqP9YLr0QdxY-56" value="" style="edgeStyle=orthogonalEdgeStyle;rounded=0;orthogonalLoop=1;jettySize=auto;html=1;entryX=0.992;entryY=0.614;entryDx=0;entryDy=0;entryPerimeter=0;" edge="1" parent="WIyWlLk6GJQsqaUBKTNV-1" source="gTHYXfEmKqP9YLr0QdxY-53">
          <mxGeometry relative="1" as="geometry">
            <mxPoint x="433.00999999999976" y="784.56" as="targetPoint" />
            <Array as="points">
              <mxPoint x="654" y="785" />
              <mxPoint x="514" y="785" />
            </Array>
          </mxGeometry>
        </mxCell>
        <mxCell id="gTHYXfEmKqP9YLr0QdxY-53" value="Match Games" style="whiteSpace=wrap;html=1;rounded=1;glass=0;strokeWidth=1;shadow=0;" vertex="1" parent="WIyWlLk6GJQsqaUBKTNV-1">
          <mxGeometry x="594" y="640" width="120" height="40" as="geometry" />
        </mxCell>
        <mxCell id="gTHYXfEmKqP9YLr0QdxY-59" value="" style="edgeStyle=orthogonalEdgeStyle;rounded=0;orthogonalLoop=1;jettySize=auto;html=1;entryX=0.5;entryY=0;entryDx=0;entryDy=0;" edge="1" parent="WIyWlLk6GJQsqaUBKTNV-1" source="gTHYXfEmKqP9YLr0QdxY-57" target="gTHYXfEmKqP9YLr0QdxY-61">
          <mxGeometry relative="1" as="geometry">
            <mxPoint x="373.9699999999998" y="760" as="targetPoint" />
          </mxGeometry>
        </mxCell>
        <mxCell id="gTHYXfEmKqP9YLr0QdxY-57" value="Host Match Game" style="rounded=1;whiteSpace=wrap;html=1;fontSize=12;glass=0;strokeWidth=1;shadow=0;" vertex="1" parent="WIyWlLk6GJQsqaUBKTNV-1">
          <mxGeometry x="360" y="680" width="120" height="40" as="geometry" />
        </mxCell>
        <mxCell id="gTHYXfEmKqP9YLr0QdxY-61" value="End" style="ellipse;whiteSpace=wrap;html=1;" vertex="1" parent="WIyWlLk6GJQsqaUBKTNV-1">
          <mxGeometry x="360" y="760" width="120" height="40" as="geometry" />
        </mxCell>
        <mxCell id="gTHYXfEmKqP9YLr0QdxY-66" value="" style="edgeStyle=orthogonalEdgeStyle;rounded=0;orthogonalLoop=1;jettySize=auto;html=1;" edge="1" parent="WIyWlLk6GJQsqaUBKTNV-1" source="gTHYXfEmKqP9YLr0QdxY-62" target="gTHYXfEmKqP9YLr0QdxY-65">
          <mxGeometry relative="1" as="geometry" />
        </mxCell>
        <mxCell id="gTHYXfEmKqP9YLr0QdxY-62" value="About Us Page" style="whiteSpace=wrap;html=1;rounded=1;glass=0;strokeWidth=1;shadow=0;" vertex="1" parent="WIyWlLk6GJQsqaUBKTNV-1">
          <mxGeometry x="-6" y="300" width="120" height="40" as="geometry" />
        </mxCell>
        <mxCell id="gTHYXfEmKqP9YLr0QdxY-68" value="" style="edgeStyle=orthogonalEdgeStyle;rounded=0;orthogonalLoop=1;jettySize=auto;html=1;entryX=0;entryY=0.5;entryDx=0;entryDy=0;" edge="1" parent="WIyWlLk6GJQsqaUBKTNV-1" source="gTHYXfEmKqP9YLr0QdxY-65" target="gTHYXfEmKqP9YLr0QdxY-61">
          <mxGeometry relative="1" as="geometry">
            <mxPoint x="14" y="780" as="targetPoint" />
            <Array as="points">
              <mxPoint x="54" y="780" />
            </Array>
          </mxGeometry>
        </mxCell>
        <mxCell id="gTHYXfEmKqP9YLr0QdxY-65" value="Policy Page" style="whiteSpace=wrap;html=1;rounded=1;glass=0;strokeWidth=1;shadow=0;" vertex="1" parent="WIyWlLk6GJQsqaUBKTNV-1">
          <mxGeometry x="-6" y="390" width="120" height="40" as="geometry" />
        </mxCell>
      </root>
    </mxGraphModel>
  </diagram>
</mxfile>
